<svg width="136" height="56" viewBox="0 0 136 56" fill="none" xmlns="http://www.w3.org/2000/svg">
<path d="M15.8281 5.42578L8.09375 29H1.86328L12.4297 0.5625H16.3945L15.8281 5.42578ZM22.2539 29L14.5 5.42578L13.875 0.5625H17.8789L28.5039 29H22.2539ZM21.9023 18.4141V23.0039H6.88281V18.4141H21.9023ZM52.207 24.4297V29H32.0508V24.4297H52.207ZM51.9141 3.82422L34.6484 29H30.5273V25.6406L47.9297 0.5625H51.9141V3.82422ZM49.9023 0.5625V5.15234H30.5469V0.5625H49.9023ZM54.7578 18.6484V18.2383C54.7578 16.6888 54.9792 15.263 55.4219 13.9609C55.8646 12.6458 56.5091 11.5065 57.3555 10.543C58.2018 9.57943 59.2435 8.83073 60.4805 8.29688C61.7174 7.75 63.1367 7.47656 64.7383 7.47656C66.3398 7.47656 67.7656 7.75 69.0156 8.29688C70.2656 8.83073 71.3138 9.57943 72.1602 10.543C73.0195 11.5065 73.6706 12.6458 74.1133 13.9609C74.556 15.263 74.7773 16.6888 74.7773 18.2383V18.6484C74.7773 20.1849 74.556 21.6107 74.1133 22.9258C73.6706 24.2279 73.0195 25.3672 72.1602 26.3438C71.3138 27.3073 70.2721 28.056 69.0352 28.5898C67.7982 29.1237 66.3789 29.3906 64.7773 29.3906C63.1758 29.3906 61.75 29.1237 60.5 28.5898C59.263 28.056 58.2148 27.3073 57.3555 26.3438C56.5091 25.3672 55.8646 24.2279 55.4219 22.9258C54.9792 21.6107 54.7578 20.1849 54.7578 18.6484ZM60.3828 18.2383V18.6484C60.3828 19.5339 60.4609 20.3607 60.6172 21.1289C60.7734 21.8971 61.0208 22.5742 61.3594 23.1602C61.7109 23.7331 62.1667 24.1823 62.7266 24.5078C63.2865 24.8333 63.9701 24.9961 64.7773 24.9961C65.5586 24.9961 66.2292 24.8333 66.7891 24.5078C67.349 24.1823 67.7982 23.7331 68.1367 23.1602C68.4753 22.5742 68.7227 21.8971 68.8789 21.1289C69.0482 20.3607 69.1328 19.5339 69.1328 18.6484V18.2383C69.1328 17.3789 69.0482 16.5716 68.8789 15.8164C68.7227 15.0482 68.4688 14.3711 68.1172 13.7852C67.7786 13.1862 67.3294 12.7174 66.7695 12.3789C66.2096 12.0404 65.5326 11.8711 64.7383 11.8711C63.944 11.8711 63.2669 12.0404 62.707 12.3789C62.1602 12.7174 61.7109 13.1862 61.3594 13.7852C61.0208 14.3711 60.7734 15.0482 60.6172 15.8164C60.4609 16.5716 60.3828 17.3789 60.3828 18.2383ZM77.8359 18.6484V18.2383C77.8359 16.6888 78.0573 15.263 78.5 13.9609C78.9427 12.6458 79.5872 11.5065 80.4336 10.543C81.2799 9.57943 82.3216 8.83073 83.5586 8.29688C84.7956 7.75 86.2148 7.47656 87.8164 7.47656C89.418 7.47656 90.8438 7.75 92.0938 8.29688C93.3438 8.83073 94.3919 9.57943 95.2383 10.543C96.0977 11.5065 96.7487 12.6458 97.1914 13.9609C97.6341 15.263 97.8555 16.6888 97.8555 18.2383V18.6484C97.8555 20.1849 97.6341 21.6107 97.1914 22.9258C96.7487 24.2279 96.0977 25.3672 95.2383 26.3438C94.3919 27.3073 93.3503 28.056 92.1133 28.5898C90.8763 29.1237 89.457 29.3906 87.8555 29.3906C86.2539 29.3906 84.8281 29.1237 83.5781 28.5898C82.3411 28.056 81.293 27.3073 80.4336 26.3438C79.5872 25.3672 78.9427 24.2279 78.5 22.9258C78.0573 21.6107 77.8359 20.1849 77.8359 18.6484ZM83.4609 18.2383V18.6484C83.4609 19.5339 83.5391 20.3607 83.6953 21.1289C83.8516 21.8971 84.099 22.5742 84.4375 23.1602C84.7891 23.7331 85.2448 24.1823 85.8047 24.5078C86.3646 24.8333 87.0482 24.9961 87.8555 24.9961C88.6367 24.9961 89.3073 24.8333 89.8672 24.5078C90.4271 24.1823 90.8763 23.7331 91.2148 23.1602C91.5534 22.5742 91.8008 21.8971 91.957 21.1289C92.1263 20.3607 92.2109 19.5339 92.2109 18.6484V18.2383C92.2109 17.3789 92.1263 16.5716 91.957 15.8164C91.8008 15.0482 91.5469 14.3711 91.1953 13.7852C90.8568 13.1862 90.4076 12.7174 89.8477 12.3789C89.2878 12.0404 88.6107 11.8711 87.8164 11.8711C87.0221 11.8711 86.3451 12.0404 85.7852 12.3789C85.2383 12.7174 84.7891 13.1862 84.4375 13.7852C84.099 14.3711 83.8516 15.0482 83.6953 15.8164C83.5391 16.5716 83.4609 17.3789 83.4609 18.2383ZM107.438 12.2422V29H101.793V7.86719H107.086L107.438 12.2422ZM106.656 17.6914H105.094C105.094 16.2201 105.27 14.8659 105.621 13.6289C105.986 12.3789 106.513 11.2982 107.203 10.3867C107.906 9.46224 108.772 8.74609 109.801 8.23828C110.829 7.73047 112.021 7.47656 113.375 7.47656C114.312 7.47656 115.172 7.61979 115.953 7.90625C116.734 8.17969 117.405 8.61589 117.965 9.21484C118.538 9.80078 118.98 10.569 119.293 11.5195C119.605 12.457 119.762 13.5833 119.762 14.8984V29H114.137V15.5234C114.137 14.5599 114.007 13.8177 113.746 13.2969C113.486 12.776 113.115 12.4115 112.633 12.2031C112.164 11.9948 111.598 11.8906 110.934 11.8906C110.204 11.8906 109.566 12.0404 109.02 12.3398C108.486 12.6393 108.043 13.056 107.691 13.5898C107.34 14.1107 107.079 14.7227 106.91 15.4258C106.741 16.1289 106.656 16.8841 106.656 17.6914ZM119.234 17.0469L117.223 17.3008C117.223 15.9206 117.392 14.638 117.73 13.4531C118.082 12.2682 118.596 11.2266 119.273 10.3281C119.964 9.42969 120.816 8.73307 121.832 8.23828C122.848 7.73047 124.02 7.47656 125.348 7.47656C126.363 7.47656 127.288 7.6263 128.121 7.92578C128.954 8.21224 129.664 8.67448 130.25 9.3125C130.849 9.9375 131.305 10.7578 131.617 11.7734C131.943 12.7891 132.105 14.0326 132.105 15.5039V29H126.461V15.5039C126.461 14.5273 126.331 13.7852 126.07 13.2773C125.823 12.7565 125.458 12.3984 124.977 12.2031C124.508 11.9948 123.948 11.8906 123.297 11.8906C122.62 11.8906 122.027 12.0273 121.52 12.3008C121.012 12.5612 120.589 12.9258 120.25 13.3945C119.911 13.8633 119.658 14.4102 119.488 15.0352C119.319 15.6471 119.234 16.3177 119.234 17.0469ZM13.4824 46.3965H17.5703C17.4883 47.7363 17.1191 48.9258 16.4629 49.9648C15.8158 51.0039 14.9089 51.8151 13.7422 52.3984C12.5846 52.9818 11.1901 53.2734 9.55859 53.2734C8.28255 53.2734 7.13867 53.0547 6.12695 52.6172C5.11523 52.1706 4.24935 51.5326 3.5293 50.7031C2.81836 49.8737 2.27604 48.8711 1.90234 47.6953C1.52865 46.5195 1.3418 45.2025 1.3418 43.7441V42.3633C1.3418 40.9049 1.5332 39.5879 1.91602 38.4121C2.30794 37.2272 2.86393 36.2201 3.58398 35.3906C4.31315 34.5612 5.18359 33.9232 6.19531 33.4766C7.20703 33.0299 8.33724 32.8066 9.58594 32.8066C11.2448 32.8066 12.6439 33.1074 13.7832 33.709C14.9316 34.3105 15.8203 35.14 16.4492 36.1973C17.0872 37.2546 17.4701 38.4577 17.5977 39.8066H13.4961C13.4505 39.0046 13.291 38.3255 13.0176 37.7695C12.7441 37.2044 12.3294 36.7806 11.7734 36.498C11.2266 36.2064 10.4974 36.0605 9.58594 36.0605C8.90234 36.0605 8.30534 36.1882 7.79492 36.4434C7.28451 36.6986 6.85612 37.0859 6.50977 37.6055C6.16341 38.125 5.90365 38.7812 5.73047 39.5742C5.56641 40.3581 5.48438 41.2786 5.48438 42.3359V43.7441C5.48438 44.7741 5.56185 45.681 5.7168 46.4648C5.87174 47.2396 6.10872 47.8958 6.42773 48.4336C6.75586 48.9622 7.17513 49.3633 7.68555 49.6367C8.20508 49.901 8.82943 50.0332 9.55859 50.0332C10.4154 50.0332 11.1217 49.8965 11.6777 49.623C12.2337 49.3496 12.6576 48.944 12.9492 48.4062C13.25 47.8685 13.4277 47.1986 13.4824 46.3965ZM28.502 49.6641V43.0742C28.502 42.6003 28.4245 42.1947 28.2695 41.8574C28.1146 41.5111 27.873 41.2422 27.5449 41.0508C27.2259 40.8594 26.8112 40.7637 26.3008 40.7637C25.8633 40.7637 25.485 40.8411 25.166 40.9961C24.847 41.1419 24.6009 41.3561 24.4277 41.6387C24.2546 41.9121 24.168 42.2357 24.168 42.6094H20.2305C20.2305 41.9805 20.3763 41.3835 20.668 40.8184C20.9596 40.2533 21.3835 39.7565 21.9395 39.3281C22.4954 38.8906 23.1562 38.5488 23.9219 38.3027C24.6966 38.0566 25.5625 37.9336 26.5195 37.9336C27.668 37.9336 28.6888 38.125 29.582 38.5078C30.4753 38.8906 31.1771 39.4648 31.6875 40.2305C32.207 40.9961 32.4668 41.9531 32.4668 43.1016V49.4316C32.4668 50.2428 32.5169 50.9082 32.6172 51.4277C32.7174 51.9382 32.8633 52.3848 33.0547 52.7676V53H29.0762C28.8848 52.599 28.7389 52.0977 28.6387 51.4961C28.5475 50.8854 28.502 50.2747 28.502 49.6641ZM29.0215 43.9902L29.0488 46.2188H26.8477C26.3281 46.2188 25.877 46.278 25.4941 46.3965C25.1113 46.515 24.7969 46.6836 24.5508 46.9023C24.3047 47.112 24.1224 47.3581 24.0039 47.6406C23.8945 47.9232 23.8398 48.2331 23.8398 48.5703C23.8398 48.9076 23.9173 49.2129 24.0723 49.4863C24.2272 49.7507 24.4505 49.9603 24.7422 50.1152C25.0339 50.2611 25.3757 50.334 25.7676 50.334C26.36 50.334 26.875 50.2155 27.3125 49.9785C27.75 49.7415 28.0872 49.4499 28.3242 49.1035C28.5703 48.7572 28.6979 48.429 28.707 48.1191L29.7461 49.7871C29.6003 50.1608 29.3997 50.5482 29.1445 50.9492C28.8984 51.3503 28.584 51.7285 28.2012 52.084C27.8184 52.4303 27.3581 52.7174 26.8203 52.9453C26.2826 53.1641 25.6445 53.2734 24.9062 53.2734C23.9674 53.2734 23.1152 53.0866 22.3496 52.7129C21.5931 52.3301 20.9915 51.806 20.5449 51.1406C20.1074 50.4661 19.8887 49.7005 19.8887 48.8438C19.8887 48.069 20.0345 47.3809 20.3262 46.7793C20.6178 46.1777 21.0462 45.6719 21.6113 45.2617C22.1855 44.8424 22.901 44.528 23.7578 44.3184C24.6146 44.0996 25.6081 43.9902 26.7383 43.9902H29.0215ZM39.9395 41.4336V53H36.002V38.207H39.707L39.9395 41.4336ZM44.3965 38.1113L44.3281 41.7617C44.1367 41.7344 43.9043 41.7116 43.6309 41.6934C43.3665 41.666 43.125 41.6523 42.9062 41.6523C42.3503 41.6523 41.8672 41.7253 41.457 41.8711C41.056 42.0078 40.7188 42.2129 40.4453 42.4863C40.181 42.7598 39.9805 43.0924 39.8438 43.4844C39.7161 43.8763 39.6432 44.3229 39.625 44.8242L38.832 44.5781C38.832 43.6211 38.9277 42.7415 39.1191 41.9395C39.3105 41.1283 39.5885 40.4219 39.9531 39.8203C40.3268 39.2188 40.7826 38.7539 41.3203 38.4258C41.8581 38.0977 42.4733 37.9336 43.166 37.9336C43.3848 37.9336 43.6081 37.9518 43.8359 37.9883C44.0638 38.0156 44.2507 38.0566 44.3965 38.1113ZM54.4746 33.0938H61.8984C63.4206 33.0938 64.7285 33.3216 65.8223 33.7773C66.9251 34.2331 67.7728 34.9076 68.3652 35.8008C68.9577 36.694 69.2539 37.7923 69.2539 39.0957C69.2539 40.1621 69.0716 41.0781 68.707 41.8438C68.3516 42.6003 67.8457 43.2337 67.1895 43.7441C66.5423 44.2454 65.7812 44.6465 64.9062 44.9473L63.6074 45.6309H57.1543L57.127 42.4316H61.9258C62.6458 42.4316 63.2428 42.304 63.7168 42.0488C64.1908 41.7936 64.5462 41.4382 64.7832 40.9824C65.0293 40.5267 65.1523 39.998 65.1523 39.3965C65.1523 38.7585 65.0339 38.207 64.7969 37.7422C64.5599 37.2773 64.1999 36.9219 63.7168 36.6758C63.2337 36.4297 62.6276 36.3066 61.8984 36.3066H58.5762V53H54.4746V33.0938ZM65.6035 53L61.0645 44.127L65.3984 44.0996L69.9922 52.8086V53H65.6035ZM79.4746 53.2734C78.3262 53.2734 77.2962 53.0911 76.3848 52.7266C75.4733 52.3529 74.6986 51.8379 74.0605 51.1816C73.4316 50.5254 72.9486 49.7643 72.6113 48.8984C72.2741 48.0234 72.1055 47.0938 72.1055 46.1094V45.5625C72.1055 44.4414 72.265 43.416 72.584 42.4863C72.903 41.5566 73.3587 40.75 73.9512 40.0664C74.5527 39.3828 75.2819 38.8587 76.1387 38.4941C76.9954 38.1204 77.9616 37.9336 79.0371 37.9336C80.0853 37.9336 81.015 38.1068 81.8262 38.4531C82.6374 38.7995 83.3164 39.2917 83.8633 39.9297C84.4193 40.5677 84.8385 41.3333 85.1211 42.2266C85.4036 43.1107 85.5449 44.0951 85.5449 45.1797V46.8203H73.7871V44.1953H81.6758V43.8945C81.6758 43.3477 81.5755 42.86 81.375 42.4316C81.1836 41.9941 80.8919 41.6478 80.5 41.3926C80.1081 41.1374 79.6068 41.0098 78.9961 41.0098C78.4766 41.0098 78.0299 41.1237 77.6562 41.3516C77.2826 41.5794 76.9772 41.8984 76.7402 42.3086C76.5124 42.7188 76.3392 43.2018 76.2207 43.7578C76.1113 44.3047 76.0566 44.9062 76.0566 45.5625V46.1094C76.0566 46.7018 76.1387 47.2487 76.3027 47.75C76.4759 48.2513 76.7174 48.6842 77.0273 49.0488C77.3464 49.4134 77.7292 49.696 78.1758 49.8965C78.6315 50.097 79.1465 50.1973 79.7207 50.1973C80.4316 50.1973 81.0924 50.0605 81.7031 49.7871C82.3229 49.5046 82.8561 49.0807 83.3027 48.5156L85.2168 50.5938C84.9069 51.0404 84.4831 51.4688 83.9453 51.8789C83.4167 52.2891 82.7786 52.6263 82.0312 52.8906C81.2839 53.1458 80.4316 53.2734 79.4746 53.2734ZM92.1426 41.3652V53H88.2051V38.207H91.8965L92.1426 41.3652ZM91.5684 45.084H90.502C90.502 43.9902 90.6432 43.0059 90.9258 42.1309C91.2083 41.2467 91.6048 40.4948 92.1152 39.875C92.6257 39.2461 93.2318 38.7676 93.9336 38.4395C94.6445 38.1022 95.4375 37.9336 96.3125 37.9336C97.0052 37.9336 97.6387 38.0339 98.2129 38.2344C98.7871 38.4349 99.2793 38.7539 99.6895 39.1914C100.109 39.6289 100.428 40.2077 100.646 40.9277C100.874 41.6478 100.988 42.5273 100.988 43.5664V53H97.0234V43.5527C97.0234 42.8965 96.9323 42.3861 96.75 42.0215C96.5677 41.6569 96.2988 41.4017 95.9434 41.2559C95.597 41.1009 95.1686 41.0234 94.6582 41.0234C94.1296 41.0234 93.6693 41.1283 93.2773 41.3379C92.8945 41.5475 92.5755 41.8392 92.3203 42.2129C92.0742 42.5775 91.8874 43.0059 91.7598 43.498C91.6322 43.9902 91.5684 44.5189 91.5684 45.084ZM111.729 38.207V40.9961H103.115V38.207H111.729ZM105.248 34.5566H109.186V48.543C109.186 48.9714 109.24 49.2995 109.35 49.5273C109.468 49.7552 109.641 49.9147 109.869 50.0059C110.097 50.0879 110.384 50.1289 110.73 50.1289C110.977 50.1289 111.195 50.1198 111.387 50.1016C111.587 50.0742 111.756 50.0469 111.893 50.0195L111.906 52.918C111.569 53.0273 111.204 53.1139 110.812 53.1777C110.421 53.2415 109.988 53.2734 109.514 53.2734C108.648 53.2734 107.891 53.1322 107.244 52.8496C106.606 52.5579 106.114 52.0931 105.768 51.4551C105.421 50.8171 105.248 49.9785 105.248 48.9395V34.5566ZM122.455 49.6641V43.0742C122.455 42.6003 122.378 42.1947 122.223 41.8574C122.068 41.5111 121.826 41.2422 121.498 41.0508C121.179 40.8594 120.764 40.7637 120.254 40.7637C119.816 40.7637 119.438 40.8411 119.119 40.9961C118.8 41.1419 118.554 41.3561 118.381 41.6387C118.208 41.9121 118.121 42.2357 118.121 42.6094H114.184C114.184 41.9805 114.329 41.3835 114.621 40.8184C114.913 40.2533 115.337 39.7565 115.893 39.3281C116.449 38.8906 117.109 38.5488 117.875 38.3027C118.65 38.0566 119.516 37.9336 120.473 37.9336C121.621 37.9336 122.642 38.125 123.535 38.5078C124.428 38.8906 125.13 39.4648 125.641 40.2305C126.16 40.9961 126.42 41.9531 126.42 43.1016V49.4316C126.42 50.2428 126.47 50.9082 126.57 51.4277C126.671 51.9382 126.816 52.3848 127.008 52.7676V53H123.029C122.838 52.599 122.692 52.0977 122.592 51.4961C122.501 50.8854 122.455 50.2747 122.455 49.6641ZM122.975 43.9902L123.002 46.2188H120.801C120.281 46.2188 119.83 46.278 119.447 46.3965C119.064 46.515 118.75 46.6836 118.504 46.9023C118.258 47.112 118.076 47.3581 117.957 47.6406C117.848 47.9232 117.793 48.2331 117.793 48.5703C117.793 48.9076 117.87 49.2129 118.025 49.4863C118.18 49.7507 118.404 49.9603 118.695 50.1152C118.987 50.2611 119.329 50.334 119.721 50.334C120.313 50.334 120.828 50.2155 121.266 49.9785C121.703 49.7415 122.04 49.4499 122.277 49.1035C122.523 48.7572 122.651 48.429 122.66 48.1191L123.699 49.7871C123.553 50.1608 123.353 50.5482 123.098 50.9492C122.852 51.3503 122.537 51.7285 122.154 52.084C121.771 52.4303 121.311 52.7174 120.773 52.9453C120.236 53.1641 119.598 53.2734 118.859 53.2734C117.921 53.2734 117.068 53.0866 116.303 52.7129C115.546 52.3301 114.945 51.806 114.498 51.1406C114.061 50.4661 113.842 49.7005 113.842 48.8438C113.842 48.069 113.988 47.3809 114.279 46.7793C114.571 46.1777 114.999 45.6719 115.564 45.2617C116.139 44.8424 116.854 44.528 117.711 44.3184C118.568 44.0996 119.561 43.9902 120.691 43.9902H122.975ZM134.111 32V53H130.16V32H134.111Z" fill="#FAFAFA"/>
</svg>
