<svg id="Layer_1" data-name="Layer 1" xmlns="http://www.w3.org/2000/svg" viewBox="0 0 58 52"><defs><style>.cls-1{fill:none;stroke-linecap:round;stroke-linejoin:round;}.cls-1,.cls-2{stroke:#159494;stroke-width:3px;}.cls-2{fill:#e8e8e8;fill-rule:evenodd;}</style></defs><title>booking-iconn</title><path class="cls-1" d="M14,4.33H38c7.71,0,9.64,1.93,9.64,9.62V27.67c0,7.71-1.93,9.62-9.62,9.62H14c-7.69,0-9.62-1.91-9.62-9.6V14C4.33,6.26,6.26,4.33,14,4.33Z"/><path class="cls-1" d="M26,37.31V47.67"/><path class="cls-1" d="M4.33,28.17H47.67"/><path class="cls-1" d="M16.25,47.67h19.5"/><path class="cls-2" d="M36,24V45.66l6.5-6.5L47.92,50s1.46.47,2.16,0,1.4-1.41,1.09-2.17C49.68,44.25,45.75,37,45.75,37h7.58Z"/></svg>