<svg width="52" height="52" viewBox="0 0 52 52" fill="none" xmlns="http://www.w3.org/2000/svg">
<path d="M33.6051 6.13165H18.3951C13.0001 6.13165 11.8084 8.81832 11.1151 12.1117L8.66675 23.8333H43.3334L40.8851 12.1117C40.1917 8.81832 39.0001 6.13165 33.6051 6.13165Z" stroke="#159494" stroke-width="3" stroke-linecap="round" stroke-linejoin="round"/>
<path d="M47.6449 42.9434C47.8833 45.4784 45.8466 47.6667 43.2466 47.6667H39.1733C36.8333 47.6667 36.5083 46.67 36.0966 45.435L35.6633 44.135C35.0566 42.3584 34.6666 41.1667 31.5466 41.1667H20.4532C17.3332 41.1667 16.8783 42.51 16.3366 44.135L15.9033 45.435C15.4916 46.67 15.1666 47.6667 12.8266 47.6667H8.75325C6.15325 47.6667 4.11658 45.4784 4.35492 42.9434L5.56825 29.7484C5.87158 26.4984 6.49992 23.8334 12.1766 23.8334H39.8233C45.4999 23.8334 46.1283 26.4984 46.4316 29.7484L47.6449 42.9434Z" stroke="#159494" stroke-width="3" stroke-linecap="round" stroke-linejoin="round"/>
<path d="M8.66667 17.3334H6.5" stroke="#159494" stroke-width="3" stroke-linecap="round" stroke-linejoin="round"/>
<path d="M45.4999 17.3334H43.3333" stroke="#159494" stroke-width="3" stroke-linecap="round" stroke-linejoin="round"/>
<path d="M26 6.5V10.8333" stroke="#159494" stroke-width="3" stroke-linecap="round" stroke-linejoin="round"/>
<path d="M22.75 10.8333H29.25" stroke="#159494" stroke-width="3" stroke-linecap="round" stroke-linejoin="round"/>
<path d="M13 32.5H19.5" stroke="#159494" stroke-width="3" stroke-linecap="round" stroke-linejoin="round"/>
<path d="M32.5 32.5H39" stroke="#159494" stroke-width="3" stroke-linecap="round" stroke-linejoin="round"/>
</svg>
