<svg width="16" height="19" viewBox="0 0 16 19" fill="none" xmlns="http://www.w3.org/2000/svg">
<path d="M12 15.5C13 15.5 16 11.8278 16 7.82791C16 3.82797 16 0.5 14.3636 0.5C13.0143 0.5 13.1485 1.53502 13.2371 2.21852C13.2559 2.36394 13.2727 2.49344 13.2727 2.59369C13.2727 2.65288 13.2739 2.72635 13.2753 2.8124C13.2871 3.55708 13.314 5.24438 12.7273 6.78106C12.4616 7.4769 11.9622 8.03904 11.4627 8.60141C10.7315 9.42448 10 10.248 10 11.4919C10 13.5855 11 15.5 12 15.5Z" fill="black"/>
<path d="M3 14C0.833333 14 0 15.0454 0 16.5C0 17.9545 0.833333 18.5 3 18.5H12.0988C12.5148 18.5 13 18.2273 13 17.5C13 16.7727 12 16.5 12 16.5C12 16.5 5.16667 14 3 14Z" fill="black"/>
</svg>
