<svg width="20" height="20" viewBox="0 0 20 20" fill="none" xmlns="http://www.w3.org/2000/svg">
<path d="M14.1831 0.732487L12.2904 2.62517L17.3741 7.70883L19.2668 5.81614C20.2444 4.83852 20.2444 3.25476 19.2668 2.27714L17.726 0.732487C16.7484 -0.245139 15.1647 -0.245139 14.187 0.732487H14.1831ZM11.4067 3.50894L2.29128 12.6282C1.88459 13.0349 1.58739 13.5394 1.42315 14.0908L0.038834 18.7951C-0.0589286 19.1275 0.031013 19.4834 0.273464 19.7258C0.515915 19.9683 0.871771 20.0582 1.20025 19.9643L5.90459 18.58C6.45597 18.4158 6.96043 18.1186 7.36712 17.7119L16.4903 8.5926L11.4067 3.50894Z" fill="#1C1C1C"/>
</svg>
