<svg width="16" height="17" viewBox="0 0 16 17" fill="none" xmlns="http://www.w3.org/2000/svg">
<g clip-path="url(#clip0_105_1945)">
<path d="M11.9598 12.46C10.8202 13.3286 9.43258 13.8099 7.99984 13.8333C3.33317 13.8333 0.666504 8.49998 0.666504 8.49998C1.49576 6.95457 2.64593 5.60438 4.03984 4.53998M6.59984 3.32664C7.05873 3.21923 7.52855 3.16554 7.99984 3.16664C12.6665 3.16664 15.3332 8.49998 15.3332 8.49998C14.9285 9.25705 14.4459 9.9698 13.8932 10.6266M9.41317 9.91331C9.23007 10.1098 9.00927 10.2674 8.76394 10.3767C8.51861 10.486 8.25377 10.5448 7.98523 10.5496C7.71669 10.5543 7.44995 10.5049 7.20091 10.4043C6.95188 10.3037 6.72565 10.154 6.53573 9.96408C6.34582 9.77416 6.1961 9.54794 6.09551 9.2989C5.99492 9.04987 5.94552 8.78312 5.95026 8.51458C5.955 8.24604 6.01378 7.98121 6.12309 7.73587C6.2324 7.49054 6.39001 7.26974 6.5865 7.08664" stroke="#1C1C1C" stroke-width="2" stroke-linecap="round" stroke-linejoin="round"/>
<path d="M0.666504 1.16663L15.3332 15.8333" stroke="#1C1C1C" stroke-width="2" stroke-linecap="round" stroke-linejoin="round"/>
</g>
<defs>
<clipPath id="clip0_105_1945">
<rect width="16" height="16" fill="white" transform="translate(0 0.5)"/>
</clipPath>
</defs>
</svg>
