<svg width="52" height="52" viewBox="0 0 52 52" fill="none" xmlns="http://www.w3.org/2000/svg">
<path d="M14.9282 37.895L19.9116 42.8784" stroke="#159494" stroke-width="3" stroke-miterlimit="10" stroke-linecap="round" stroke-linejoin="round"/>
<path d="M45.4999 29.0333C41.0366 33.475 35.9449 35.1217 30.3332 33.3667L16.2066 46.5833C15.4699 47.3417 14.0182 47.7967 12.9782 47.645L8.25491 46.995C6.69491 46.7783 5.24324 45.305 5.00491 43.745L4.35491 39.0217C4.20324 37.9817 4.70158 36.53 5.41658 35.7933L18.6332 22.9667C16.8999 17.3334 17.2032 10.9417 21.6666 6.49999C28.0582 0.108321 38.2199 0.108321 44.6332 6.49999C51.0466 12.8917 51.8916 22.6417 45.4999 29.0333Z" stroke="#159494" stroke-width="3" stroke-miterlimit="10" stroke-linecap="round" stroke-linejoin="round"/>
<path d="M33.8001 22.5334C36.672 22.5334 39.0001 20.2052 39.0001 17.3334C39.0001 14.4615 36.672 12.1334 33.8001 12.1334C30.9282 12.1334 28.6001 14.4615 28.6001 17.3334C28.6001 20.2052 30.9282 22.5334 33.8001 22.5334Z" stroke="#159494" stroke-width="3" stroke-linecap="round" stroke-linejoin="round"/>
<path d="M20.8 32.9333L25.7834 37.9167" stroke="#159494" stroke-width="3" stroke-miterlimit="10" stroke-linecap="round" stroke-linejoin="round"/>
</svg>
