<svg width="67" height="33" viewBox="0 0 67 33" fill="none" xmlns="http://www.w3.org/2000/svg">
<path d="M23.4489 25.16H27.4009V27H20.9049V25.192L24.7769 19.976H20.9209V18.136H27.3529V19.944L23.4489 25.16ZM33.5713 27.144C32.7179 27.144 31.9499 26.9573 31.2673 26.584C30.5846 26.2 30.0459 25.6613 29.6513 24.968C29.2673 24.2747 29.0753 23.4747 29.0753 22.568C29.0753 21.6613 29.2726 20.8613 29.6673 20.168C30.0726 19.4747 30.6219 18.9413 31.3153 18.568C32.0086 18.184 32.7819 17.992 33.6353 17.992C34.4886 17.992 35.2619 18.184 35.9553 18.568C36.6486 18.9413 37.1926 19.4747 37.5873 20.168C37.9926 20.8613 38.1953 21.6613 38.1953 22.568C38.1953 23.4747 37.9873 24.2747 37.5712 24.968C37.1659 25.6613 36.6113 26.2 35.9073 26.584C35.2139 26.9573 34.4353 27.144 33.5713 27.144ZM33.5713 25.192C33.9766 25.192 34.3553 25.096 34.7073 24.904C35.0699 24.7013 35.3579 24.4027 35.5713 24.008C35.7846 23.6133 35.8913 23.1333 35.8913 22.568C35.8913 21.7253 35.6673 21.08 35.2193 20.632C34.7819 20.1733 34.2433 19.944 33.6033 19.944C32.9633 19.944 32.4246 20.1733 31.9873 20.632C31.5606 21.08 31.3473 21.7253 31.3473 22.568C31.3473 23.4107 31.5553 24.0613 31.9713 24.52C32.3979 24.968 32.9313 25.192 33.5713 25.192ZM44.2744 27.144C43.421 27.144 42.653 26.9573 41.9704 26.584C41.2877 26.2 40.749 25.6613 40.3544 24.968C39.9704 24.2747 39.7784 23.4747 39.7784 22.568C39.7784 21.6613 39.9757 20.8613 40.3704 20.168C40.7757 19.4747 41.325 18.9413 42.0184 18.568C42.7117 18.184 43.485 17.992 44.3384 17.992C45.1917 17.992 45.965 18.184 46.6584 18.568C47.3517 18.9413 47.8957 19.4747 48.2904 20.168C48.6957 20.8613 48.8984 21.6613 48.8984 22.568C48.8984 23.4747 48.6904 24.2747 48.2744 24.968C47.869 25.6613 47.3144 26.2 46.6104 26.584C45.917 26.9573 45.1384 27.144 44.2744 27.144ZM44.2744 25.192C44.6797 25.192 45.0584 25.096 45.4104 24.904C45.773 24.7013 46.061 24.4027 46.2744 24.008C46.4877 23.6133 46.5944 23.1333 46.5944 22.568C46.5944 21.7253 46.3704 21.08 45.9224 20.632C45.485 20.1733 44.9464 19.944 44.3064 19.944C43.6664 19.944 43.1277 20.1733 42.6904 20.632C42.2637 21.08 42.0504 21.7253 42.0504 22.568C42.0504 23.4107 42.2584 24.0613 42.6744 24.52C43.101 24.968 43.6344 25.192 44.2744 25.192ZM62.0495 18.008C63.1375 18.008 64.0122 18.344 64.6735 19.016C65.3455 19.6773 65.6815 20.6053 65.6815 21.8V27H63.4415V22.104C63.4415 21.4107 63.2655 20.8827 62.9135 20.52C62.5615 20.1467 62.0815 19.96 61.4735 19.96C60.8655 19.96 60.3802 20.1467 60.0175 20.52C59.6655 20.8827 59.4895 21.4107 59.4895 22.104V27H57.2495V22.104C57.2495 21.4107 57.0735 20.8827 56.7215 20.52C56.3695 20.1467 55.8895 19.96 55.2815 19.96C54.6628 19.96 54.1722 20.1467 53.8095 20.52C53.4575 20.8827 53.2815 21.4107 53.2815 22.104V27H51.0415V18.136H53.2815V19.208C53.5695 18.8347 53.9375 18.5413 54.3855 18.328C54.8442 18.1147 55.3455 18.008 55.8895 18.008C56.5828 18.008 57.2015 18.1573 57.7455 18.456C58.2895 18.744 58.7108 19.16 59.0095 19.704C59.2975 19.192 59.7135 18.7813 60.2575 18.472C60.8122 18.1627 61.4095 18.008 62.0495 18.008Z" fill="#159494"/>
<path d="M1 26.5C1.42619 23.6587 1.93973 20.9385 2.55791 18.5M18 26.5C17.4966 23.4796 16.9615 20.8076 16.3788 18.5M2.55791 18.5C4.11544 12.356 6.33726 7.99999 9.50008 8C12.4933 8.00001 14.6465 11.6396 16.3788 18.5M2.55791 18.5H16.3788" stroke="#159494" stroke-width="2" stroke-linecap="round"/>
<path d="M30 7.99965L30.7338 7.32025L30.7338 7.32025L30 7.99965ZM64.5 14C65.0523 14 65.5 13.5523 65.5 13C65.5 12.4477 65.0523 12 64.5 12V14ZM10.2634 8.64546C11.2226 7.51179 12.1765 6.25936 13.3233 5.1165C14.4559 3.98772 15.682 3.06974 17.0753 2.62533C19.7292 1.7788 23.5531 2.50875 29.2662 8.67906L30.7338 7.32025C24.8373 0.951969 20.2444 -0.48481 16.4675 0.719908C14.6453 1.30112 13.1523 2.46326 11.9115 3.69986C10.6848 4.92238 9.61069 6.32059 8.73661 7.35358L10.2634 8.64546ZM29.2662 8.67906C32.479 12.1489 35.6371 14.2486 38.7685 15.4136C41.8997 16.5786 44.9429 16.7861 47.8892 16.5595C50.8145 16.3345 53.6882 15.6755 56.4333 15.0956C59.2092 14.5091 61.8663 14 64.5 14V12C61.6337 12 58.7908 12.5534 56.0199 13.1388C53.218 13.7307 50.498 14.3529 47.7358 14.5653C44.9946 14.7762 42.2565 14.5773 39.4659 13.5391C36.6754 12.5009 33.771 10.6005 30.7338 7.32025L29.2662 8.67906Z" fill="#159494"/>
</svg>
