<svg width="18" height="19" viewBox="0 0 18 19" fill="none" xmlns="http://www.w3.org/2000/svg">
<path d="M7.86761 2.17242L4.12511 3.57492C3.26261 3.89742 2.55762 4.91741 2.55762 5.83991V11.4124C2.55762 12.2974 3.14263 13.4599 3.85513 13.9924L7.08012 16.3999C8.13762 17.1949 9.8776 17.1949 10.9351 16.3999L14.1601 13.9924C14.8726 13.4599 15.4576 12.2974 15.4576 11.4124V5.83991C15.4576 4.91741 14.7526 3.89742 13.8901 3.57492L10.1476 2.17242C9.51011 1.93992 8.49011 1.93992 7.86761 2.17242Z" stroke="#171717" stroke-linecap="round" stroke-linejoin="round"/>
<path d="M8.99879 8.69006C8.96879 8.69006 8.93129 8.69006 8.90129 8.69006C8.19629 8.66756 7.63379 8.08256 7.63379 7.37006C7.63379 6.64256 8.2263 6.05005 8.9538 6.05005C9.6813 6.05005 10.2738 6.64256 10.2738 7.37006C10.2663 8.09006 9.70379 8.66756 8.99879 8.69006Z" stroke="#171717" stroke-linecap="round" stroke-linejoin="round"/>
<path d="M7.5068 10.79C6.7868 11.27 6.7868 12.0575 7.5068 12.5375C8.3243 13.085 9.6668 13.085 10.4843 12.5375C11.2043 12.0575 11.2043 11.27 10.4843 10.79C9.6743 10.2425 8.3318 10.2425 7.5068 10.79Z" stroke="#171717" stroke-linecap="round" stroke-linejoin="round"/>
</svg>
