<svg width="18" height="19" viewBox="0 0 18 19" fill="none" xmlns="http://www.w3.org/2000/svg">
<path d="M9 9.5C11.0711 9.5 12.75 7.82107 12.75 5.75C12.75 3.67893 11.0711 2 9 2C6.92893 2 5.25 3.67893 5.25 5.75C5.25 7.82107 6.92893 9.5 9 9.5Z" stroke="#1C1C1C" stroke-linecap="round" stroke-linejoin="round"/>
<path d="M2.55762 17C2.55762 14.0975 5.44511 11.75 9.00011 11.75C9.72011 11.75 10.4176 11.8475 11.0701 12.0275" stroke="#1C1C1C" stroke-linecap="round" stroke-linejoin="round"/>
<path d="M16.5 14C16.5 14.24 16.47 14.4725 16.41 14.6975C16.3425 14.9975 16.2225 15.29 16.065 15.545C15.5475 16.415 14.595 17 13.5 17C12.7275 17 12.03 16.7075 11.505 16.2275C11.28 16.0325 11.085 15.8 10.935 15.545C10.6575 15.095 10.5 14.5625 10.5 14C10.5 13.19 10.8225 12.4475 11.3475 11.9075C11.895 11.345 12.66 11 13.5 11C14.385 11 15.1875 11.3825 15.7275 11.9975C16.2075 12.53 16.5 13.235 16.5 14Z" stroke="#1C1C1C" stroke-miterlimit="10" stroke-linecap="round" stroke-linejoin="round"/>
<path d="M14.6178 13.9851H12.3828" stroke="#1C1C1C" stroke-miterlimit="10" stroke-linecap="round" stroke-linejoin="round"/>
<path d="M13.5 12.8901V15.1326" stroke="#1C1C1C" stroke-miterlimit="10" stroke-linecap="round" stroke-linejoin="round"/>
</svg>
